<?xml version="1.0" encoding="UTF-8" standalone="no"?>
<!-- Created with Inkscape (http://www.inkscape.org/) -->

<svg
   version="1.1"
   id="svg1004"
   xml:space="preserve"
   width="1066.6667"
   height="1066.6667"
   viewBox="0 0 1066.6667 1066.6667"
   sodipodi:docname="dog-profile-silhouette-pdv.svg"
   inkscape:version="1.1.2 (b8e25be833, 2022-02-05)"
   xmlns:inkscape="http://www.inkscape.org/namespaces/inkscape"
   xmlns:sodipodi="http://sodipodi.sourceforge.net/DTD/sodipodi-0.dtd"
   xmlns="http://www.w3.org/2000/svg"
   xmlns:svg="http://www.w3.org/2000/svg"><defs
     id="defs1008"><clipPath
       clipPathUnits="userSpaceOnUse"
       id="clipPath1018"><path
         d="M 0,800 H 800 V 0 H 0 Z"
         id="path1016" /></clipPath></defs><sodipodi:namedview
     id="namedview1006"
     pagecolor="#ffffff"
     bordercolor="#666666"
     borderopacity="1.0"
     inkscape:pageshadow="2"
     inkscape:pageopacity="0.0"
     inkscape:pagecheckerboard="0"
     showgrid="false"
     inkscape:zoom="0.77906244"
     inkscape:cx="533.33337"
     inkscape:cy="533.33337"
     inkscape:window-width="1920"
     inkscape:window-height="1018"
     inkscape:window-x="-8"
     inkscape:window-y="-8"
     inkscape:window-maximized="1"
     inkscape:current-layer="g1010" /><g
     id="g1010"
     inkscape:groupmode="layer"
     inkscape:label="dog-profile-silhouette-pdv"
     transform="matrix(1.3333333,0,0,-1.3333333,0,1066.6667)"><g
       id="g1012"><g
         id="g1014"
         clip-path="url(#clipPath1018)"><path
           d="m 679.145,313.055 c 6.298,17.801 11.321,36.211 14.957,55.121 l -97.495,-31.97 z"
           style="fill:#e8f8c4;fill-opacity:1;fill-rule:nonzero;stroke:none"
           id="path1020" /><path
           d="m 637.787,230.026 c 16.964,25.669 30.915,53.512 41.358,83.029 l -82.538,23.151 z"
           style="fill:#ddf5db;fill-opacity:1;fill-rule:nonzero;stroke:none"
           id="path1022" /><path
           d="m 596.607,336.206 103.131,136.453 c -0.707,8.653 -1.696,17.225 -2.959,25.714 -4.845,2.15 -9.95,4.409 -15.221,6.737 l -129.552,23.261 z"
           style="fill:#ffe157;fill-opacity:1;fill-rule:nonzero;stroke:none"
           id="path1024" /><path
           d="m 694.102,368.176 c 4.542,23.63 6.923,48.038 6.923,73.013 0,10.602 -0.44,21.093 -1.287,31.47 L 596.607,336.206 Z"
           style="fill:#f9f393;fill-opacity:1;fill-rule:nonzero;stroke:none"
           id="path1026" /><path
           d="m 681.558,505.11 c -29.404,12.985 -64.005,28.122 -87.745,38.485 l -41.807,-15.224 z"
           style="fill:#fdb53f;fill-opacity:1;fill-rule:nonzero;stroke:none"
           id="path1028" /><path
           d="m 593.813,543.595 c -16.83,7.346 -28.202,12.294 -28.392,12.373 -0.654,0.274 -1.615,0.74 -2.883,1.384 -0.186,0.095 -2.666,2.506 -6.763,6.549 l -3.769,-35.53 z"
           style="fill:#ff9b13;fill-opacity:1;fill-rule:nonzero;stroke:none"
           id="path1030" /><path
           d="m 583.686,215.32 39.612,-5.733 c 5.046,6.645 9.878,13.463 14.489,20.439 l -41.18,106.18 z"
           style="fill:#dff3bd;fill-opacity:1;fill-rule:nonzero;stroke:none"
           id="path1032" /><path
           d="m 608.385,191.159 c 5.155,5.985 10.131,12.128 14.913,18.428 l -39.612,5.733 z"
           style="fill:#c0eac6;fill-opacity:1;fill-rule:nonzero;stroke:none"
           id="path1034" /><path
           d="m 567.903,150.701 c 14.48,12.46 28.013,25.986 40.482,40.458 l -24.699,24.161 z"
           style="fill:#bee2ba;fill-opacity:1;fill-rule:nonzero;stroke:none"
           id="path1036" /><path
           d="M 596.607,336.206 552.006,528.371 455.714,375.806 Z"
           style="fill:#ffdd4d;fill-opacity:1;fill-rule:nonzero;stroke:none"
           id="path1038" /><path
           d="M 415.697,221.156 583.686,215.32 455.714,375.806 Z"
           style="fill:#f0e096;fill-opacity:1;fill-rule:nonzero;stroke:none"
           id="path1040" /><path
           d="m 583.686,215.32 12.921,120.886 -140.893,39.6 z"
           style="fill:#f6ee98;fill-opacity:1;fill-rule:nonzero;stroke:none"
           id="path1042" /><path
           d="m 496.917,622.501 c -11.419,11.38 -22.165,22.075 -30.132,29.957 l -31.08,-37.383 z"
           style="fill:#fb6800;fill-opacity:1;fill-rule:nonzero;stroke:none"
           id="path1044" /><path
           d="m 415.697,221.156 131.696,-86.919 c 7.028,5.255 13.868,10.748 20.51,16.464 l 15.783,64.619 z"
           style="fill:#d3dfa7;fill-opacity:1;fill-rule:nonzero;stroke:none"
           id="path1046" /><path
           d="M 552.006,528.371 378.181,484.186 455.714,375.806 Z"
           style="fill:#feba1a;fill-opacity:1;fill-rule:nonzero;stroke:none"
           id="path1048" /><path
           d="m 466.785,652.458 c -7.892,7.807 -13.056,12.854 -13.439,13.062 -0.95,0.513 -14.071,14.118 -26.414,26.857 l 8.773,-77.302 z"
           style="fill:#f35c00;fill-opacity:1;fill-rule:nonzero;stroke:none"
           id="path1050" /><path
           d="m 447.918,80.695 c 31.377,11.277 60.841,26.528 87.791,45.144 l -103.783,3.907 c 4.144,-15.059 9.125,-32.306 15.992,-49.051"
           style="fill:#c2ba94;fill-opacity:1;fill-rule:nonzero;stroke:none"
           id="path1052" /><path
           d="m 404.607,189.368 c 5.526,-6.581 10.504,-13.346 14.323,-19.713 4.324,-7.203 8.07,-22.011 12.996,-39.909 l 103.783,-3.907 c 3.949,2.728 7.844,5.528 11.684,8.398 l -131.696,86.919 z"
           style="fill:#d3c993;fill-opacity:1;fill-rule:nonzero;stroke:none"
           id="path1054" /><path
           d="m 552.006,528.371 3.769,35.53 c -11.691,11.539 -36.552,36.371 -58.858,58.6 l -61.212,-7.426 z"
           style="fill:#ff8500;fill-opacity:1;fill-rule:nonzero;stroke:none"
           id="path1056" /><path
           d="M 435.705,615.075 378.181,484.186 552.006,528.371 Z"
           style="fill:#fe9400;fill-opacity:1;fill-rule:nonzero;stroke:none"
           id="path1058" /><path
           d="m 285.924,737.656 c -0.275,0.972 -3.21,1.711 0,0"
           style="fill:#f04f00;fill-opacity:1;fill-rule:nonzero;stroke:none"
           id="path1060" /><path
           d="m 426.932,692.377 c -10.744,11.085 -20.899,21.515 -21.931,22.089 -2.229,1.236 -32.789,22.885 -35.366,24.342 -0.486,0.264 -1.151,0.338 -1.964,0.275 v -0.011 c -3.527,-0.264 -9.421,-2.968 -11.744,-1.658 -2.84,1.615 1.785,-7.076 -1.255,-5.344 -1.521,0.856 -2.399,-11.299 -0.825,-18.944 1.574,-7.656 1.236,-14.827 -2.323,-14.933 -3.569,-0.094 8.237,-12.398 -4.53,-5.111 -1.785,1.014 -2.968,1.679 -3.855,2.165 0.666,-0.18 0.94,0.053 -0.517,1.574 -2.333,2.429 -1.68,2.101 -1.457,2.006 -0.18,0.191 -1.057,0.983 -4.098,3.548 -8.215,6.938 -30.53,26.4 -27.952,22.599 2.565,-3.801 -13.169,7.804 -21.892,12.017 -0.623,0.296 -0.898,0.444 -1.299,0.665 0.169,-0.623 -0.802,-1.299 -5.364,-1.426 -2.25,-0.051 -3.263,-1.089 -3.497,-2.642 L 435.705,615.075 Z"
           style="fill:#f04f00;fill-opacity:1;fill-rule:nonzero;stroke:none"
           id="path1062" /><path
           d="m 277.063,733.588 c -0.422,-2.805 1.707,-7.296 3.74,-10.736 -0.455,0.623 -0.856,1.171 -1.416,1.932 -14.911,20.106 4.678,-20.698 5.47,-27.53 0.792,-6.833 1.521,-17.869 2.049,-26.538 0.397,-6.525 -4.563,-37.749 -7.488,-55.268 l 156.287,-0.373 z"
           style="fill:#f64e00;fill-opacity:1;fill-rule:nonzero;stroke:none"
           id="path1064" /><path
           d="m 303.565,376.64 112.132,-155.484 40.017,154.65 z"
           style="fill:#fbb94f;fill-opacity:1;fill-rule:nonzero;stroke:none"
           id="path1066" /><path
           d="M 455.714,375.806 378.181,484.186 303.565,376.64 Z"
           style="fill:#ffab15;fill-opacity:1;fill-rule:nonzero;stroke:none"
           id="path1068" /><path
           d="m 435.705,615.075 -156.287,0.373 c -0.962,-5.761 -1.704,-10.043 -1.963,-11.472 -0.439,-2.404 -0.43,-4.351 -0.702,-6.09 l 101.428,-113.7 z"
           style="fill:#fd7700;fill-opacity:1;fill-rule:nonzero;stroke:none"
           id="path1070" /><path
           d="m 303.565,376.64 -40.008,-99.879 c 14.922,-0.828 27.567,-8.443 37.954,-14.937 11.89,-7.434 29.748,-28.259 38.671,-34.215 8.914,-5.946 6.77,5.587 22.282,-1.458 1.466,-0.663 3.039,-1.507 4.697,-2.508 l 48.536,-2.487 z"
           style="fill:#f59959;fill-opacity:1;fill-rule:nonzero;stroke:none"
           id="path1072" /><path
           d="m 367.161,223.643 c 10.89,-6.58 25.456,-19.992 37.446,-34.275 l 11.09,31.788 z"
           style="fill:#e0a468;fill-opacity:1;fill-rule:nonzero;stroke:none"
           id="path1074" /><path
           d="M 378.181,484.186 257.712,471.681 303.565,376.64 Z"
           style="fill:#ff8800;fill-opacity:1;fill-rule:nonzero;stroke:none"
           id="path1076" /><path
           d="m 378.181,484.186 -101.428,113.7 c -0.382,-2.449 -1.321,-4.485 -4.853,-6.795 -3.805,-2.475 -7.816,-5.997 -11.641,-9.577 l -2.547,-109.833 z"
           style="fill:#fd7400;fill-opacity:1;fill-rule:nonzero;stroke:none"
           id="path1078" /><path
           d="m 260.259,581.514 c -2.247,-2.103 -4.43,-4.226 -6.47,-6.167 -5.523,-5.249 -29.156,-23.656 -38.354,-31.544 -1.672,-1.433 -3.423,-2.953 -5.2,-4.53 l -35.454,-53.18 c -0.08,-0.228 -0.162,-0.458 -0.243,-0.689 l 83.174,-13.723 z"
           style="fill:#fa6200;fill-opacity:1;fill-rule:nonzero;stroke:none"
           id="path1080" /><path
           d="m 257.712,471.681 -96.708,-76.7 142.561,-18.341 z"
           style="fill:#ff7200;fill-opacity:1;fill-rule:nonzero;stroke:none"
           id="path1082" /><path
           d="m 161.004,394.981 63.664,-125.427 c 13.325,3.614 25.596,6.565 32.269,7.118 2.254,0.188 4.46,0.209 6.62,0.089 l 40.008,99.879 z"
           style="fill:#fc741c;fill-opacity:1;fill-rule:nonzero;stroke:none"
           id="path1084" /><path
           d="m 160.687,251.578 c 3.864,0.98 7.208,1.815 9.54,2.368 6.907,1.653 32.148,9.56 54.441,15.608 l -63.664,125.427 z"
           style="fill:#f26238;fill-opacity:1;fill-rule:nonzero;stroke:none"
           id="path1086" /><path
           d="m 257.712,471.681 -83.174,13.723 c -0.114,-0.324 -0.228,-0.65 -0.344,-0.978 l -13.19,-89.445 z"
           style="fill:#fa6800;fill-opacity:1;fill-rule:nonzero;stroke:none"
           id="path1088" /><path
           d="m 189.404,517.509 c -5.249,-7.889 -8.924,-14.426 -11.025,-20.994 -0.716,-2.24 -2.076,-6.1 -3.598,-10.422 l 35.454,53.18 c -7.998,-7.092 -16.528,-15.319 -20.831,-21.764"
           style="fill:#f64d00;fill-opacity:1;fill-rule:nonzero;stroke:none"
           id="path1090" /><path
           d="m 44.105,283.916 c 7.362,-13.665 21.026,-18.924 27.331,-22.599 6.304,-3.674 19.42,-3.147 22.049,-3.147 2.63,0 1.584,-0.527 4.214,-4.731 2.629,-4.203 18.385,-12.102 23.116,-11.574 1.662,0.186 6.89,1.408 13.451,3.029 l -83.79,122.01 c -3.669,-2.225 -8.314,-4.998 -12.515,-7.374 l -9.929,-51.99 c 1.967,-1.417 4.069,-1.9 5.567,-2.988 2.037,-1.479 3.146,-6.971 10.506,-20.636"
           style="fill:#e24630;fill-opacity:1;fill-rule:nonzero;stroke:none"
           id="path1092" /><path
           d="m 160.687,251.578 0.317,143.403 -83.269,-10.773 C 69.006,378.125 58.704,371.979 56.979,370.9 c -0.663,-0.416 -3.183,-1.981 -6.503,-3.996 l 83.79,-122.01 c 8.175,2.02 18.418,4.659 26.421,6.684"
           style="fill:#f2500e;fill-opacity:1;fill-rule:nonzero;stroke:none"
           id="path1094" /><path
           d="m 174.194,484.426 c -2.811,-7.988 -5.953,-17.008 -6.597,-20.247 -1.056,-5.248 -11.035,-18.385 -16.823,-26.528 -4.523,-6.383 -15.981,-15.188 -24.526,-20.726 l 34.756,-21.944 z"
           style="fill:#f55e00;fill-opacity:1;fill-rule:nonzero;stroke:none"
           id="path1096" /><path
           d="m 126.248,416.925 c -2.369,-1.534 -4.513,-2.819 -6.225,-3.731 -7.877,-4.203 -27.583,-17.868 -36.771,-24.964 -1.683,-1.298 -3.561,-2.659 -5.517,-4.022 l 83.269,10.773 z"
           style="fill:#f15700;fill-opacity:1;fill-rule:nonzero;stroke:none"
           id="path1098" /><path
           d="m 28.318,354.605 c -5.787,-2.111 -14.995,-9.059 -15.755,-10.243 -0.75,-1.181 0.02,-11.404 2.249,-16.969 2.228,-5.576 8.723,-14.679 11.141,-17.836 0.65,-0.852 1.356,-1.495 2.079,-2.017 l 9.929,51.99 c -4.057,-2.295 -7.699,-4.22 -9.643,-4.925"
           style="fill:#e24d00;fill-opacity:1;fill-rule:nonzero;stroke:none"
           id="path1100" /></g></g></g></svg>
